<svg xmlns="http://www.w3.org/2000/svg" viewBox="0 0 32 32" width="100" height="100">
  <path fill="var(--logo-color, #fff)" d="M29.9718,8.2505A15.8723,15.8723,0,0,0,15.8329.0015,11.7243,11.7243,0,0,1,17.67.3685c15.0534,3.4,14.5607,29.33-2.6824,28.0471a11.1107,11.1107,0,0,0,8.5561-9.127,11.8762,11.8762,0,0,1-3.3711,2.8,8.1825,8.1825,0,0,1-5.7377,1.488h0A11.8258,11.8258,0,0,1,2.6154,11.7447h0a11.7947,11.7947,0,0,1,3.1982-8.094c-10.3391,8.615-6.2324,25.4719,7.14,28.0329A15.9514,15.9514,0,0,0,29.9718,8.2505Z"/>
</svg>