<svg xmlns="http://www.w3.org/2000/svg" width="100" height="100" viewBox="0 0 100 100">
  <path fill="var(--logo-color, #fff)" d="M99.2077,32.2338a11.01,11.01,0,0,0-7.1414-6.7187A48.2651,48.2651,0,0,0,5.3586,28.7425c-.1091.2132-.2278.4466-.3269.68-.1485.3349-.2972.68-.4358,1.0251a1.2562,1.2562,0,0,0-.0694.1725A49.2745,49.2745,0,0,0,2.06,38.3437H31.7353a22.4757,22.4757,0,0,0-3.2092,11.6512c0,11.9761,9.1422,21.6787,20.4141,21.6787.2873,0,.5745-.01.8517-.02v.02H81.1312a37.5435,37.5435,0,0,1-63.857-.9946A11.2856,11.2856,0,0,0,19.81,67.756a11.9,11.9,0,0,0,1.6937-6.15c0-6.0388-4.4274-10.9916-10.0237-11.3874-.2377-.02-.4854-.03-.733-.03a10.6976,10.6976,0,0,0-9.6077,6.3127A11.9787,11.9787,0,0,0,1.7036,67.756a10.9949,10.9949,0,0,0,3.7737,3.7856A48.7333,48.7333,0,0,0,49.5246,100c23.019,0,42.3237-16.35,47.4545-38.3437H66.1549A22.5123,22.5123,0,0,0,69.364,49.9949c0-11.9659-9.1422-21.6685-20.4238-21.6685H17.8981a37.5455,37.5455,0,0,1,63.5006.406,11.5746,11.5746,0,0,0-2.12,3.5014,12.0373,12.0373,0,0,0-.7824,4.2931A11.24,11.24,0,0,0,87.5,47.7926a9.8716,9.8716,0,0,0,1.7433.1522,10.5268,10.5268,0,0,0,8.637-4.6179,11.9895,11.9895,0,0,0,1.3274-11.0931ZM10.7468,57.3226a3.7476,3.7476,0,0,1,1.4659.2944,4.2808,4.2808,0,0,1,2.5754,3.9886,4.3918,4.3918,0,0,1-.7528,2.4764,3.944,3.944,0,0,1-3.2885,1.8065,4.2908,4.2908,0,0,1,0-8.5659Zm49.1779-7.3277c0,6.4447-4.9129,11.6614-10.9845,11.6614-6.0619,0-10.9846-5.2167-10.9846-11.6614,0-6.4346,4.9227-11.6512,10.9846-11.6512C55.0118,38.3437,59.9247,43.56,59.9247,49.9949ZM89.2433,40.81a3.9152,3.9152,0,0,1-3.18-1.6645,4.3028,4.3028,0,0,1-.8519-2.6185v-.03A4.0444,4.0444,0,1,1,89.2433,40.81Z"/>
</svg>